<?xml version="1.0" encoding="UTF-8"?>
<svg width="400" height="400" viewBox="0 0 400 400" fill="none" xmlns="http://www.w3.org/2000/svg">
  <!-- Background Circle -->
  <circle cx="200" cy="200" r="180" fill="#F3F4F6"/>
  
  <!-- Main Illustration -->
  <g transform="translate(100, 100)">
    <!-- Page -->
    <rect x="40" y="40" width="120" height="160" rx="8" fill="white" stroke="#E5E7EB" stroke-width="2"/>
    
    <!-- Broken Link Symbol -->
    <g transform="translate(100, 120)">
      <!-- Chain Links -->
      <circle cx="0" cy="-20" r="12" fill="#E5E7EB"/>
      <circle cx="0" cy="20" r="12" fill="#E5E7EB"/>
      
      <!-- Broken Chain -->
      <path d="M0 -8 L0 8" stroke="#EF4444" stroke-width="3" stroke-linecap="round"/>
      
      <!-- Decorative Elements -->
      <circle cx="-30" cy="0" r="6" fill="#E5E7EB"/>
      <circle cx="30" cy="0" r="6" fill="#E5E7EB"/>
    </g>
    
    <!-- Page Content -->
    <g transform="translate(60, 60)">
      <!-- Lines -->
      <rect x="0" y="0" width="80" height="4" rx="2" fill="#E5E7EB"/>
      <rect x="0" y="12" width="60" height="4" rx="2" fill="#E5E7EB"/>
      <rect x="0" y="24" width="70" height="4" rx="2" fill="#E5E7EB"/>
      <rect x="0" y="36" width="50" height="4" rx="2" fill="#E5E7EB"/>
    </g>
  </g>
  
  <!-- Decorative Elements -->
  <circle cx="100" cy="100" r="8" fill="#6366F1" opacity="0.2"/>
  <circle cx="300" cy="300" r="12" fill="#6366F1" opacity="0.2"/>
  <circle cx="300" cy="100" r="6" fill="#6366F1" opacity="0.2"/>
  <circle cx="100" cy="300" r="10" fill="#6366F1" opacity="0.2"/>
</svg> 